<svg xmlns="http://www.w3.org/2000/svg" viewBox="0 0 64 64">
  <rect width="64" height="64" rx="14" fill="#5C7050"/>
  <g fill="#F7F1E5">
    <path d="M32 14 C 36 24, 36 32, 32 40 C 28 32, 28 24, 32 14 Z"/>
    <path d="M44 22 C 50 30, 48 40, 38 42 C 34 36, 36 26, 44 22 Z" opacity="0.82"/>
    <path d="M20 22 C 14 30, 16 40, 26 42 C 30 36, 28 26, 20 22 Z" opacity="0.82"/>
    <path d="M12 48 C 18 52, 24 50, 32 48 C 40 50, 46 52, 52 48 L 52 50 C 46 54, 40 52, 32 50 C 24 52, 18 54, 12 50 Z" opacity="0.65"/>
  </g>
</svg>
